# xmcd CD database file
#
# Track frame offsets:
#	150
#	12742
#	25612
#	36907
#	50270
#	62760
#	76592
#	92127
#	105680
#	118245
#	134027
#	147192
#	161330
#	173252
#
# Disc length: 2523 seconds
#
# Revision: 0
# Processed by: cddbd v1.4PL0 Copyright (c) Steve Scherf et al.
# Submitted via: CDex 1.50Beta7
#
DISCID=b109d90e
DTITLE=Sérgio Reis - Sérgio Reis CD 2
DYEAR=1900
DGENRE=Country
TTITLE0=vaqueiro solitario
TTITLE1=morrendo de amor
TTITLE2=o doutor e a empregada
TTITLE3=sou o mesmo boiadeiro
TTITLE4=fazenda santo antonio
TTITLE5=a gaivota
TTITLE6=canoeiro
TTITLE7=novilha
TTITLE8=buscando a felicidade
TTITLE9=nossos campos verdes
TTITLE10=goiano valente
TTITLE11=na estrada do sonho
TTITLE12=fio de cabelo
TTITLE13=nao ha coracao que aguente
EXTD=
EXTT0=
EXTT1=
EXTT2=
EXTT3=
EXTT4=
EXTT5=
EXTT6=
EXTT7=
EXTT8=
EXTT9=
EXTT10=
EXTT11=
EXTT12=
EXTT13=
PLAYORDER=
